<?xml version="1.0" encoding="utf-8"?>
<!-- Generator: Adobe Illustrator 25.3.0, SVG Export Plug-In . SVG Version: 6.00 Build 0)  -->
<svg version="1.1" id="Layer_1" xmlns="http://www.w3.org/2000/svg" xmlns:xlink="http://www.w3.org/1999/xlink" x="0px" y="0px"
	 viewBox="0 0 566.93 198.425" style="enable-background:new 0 0 566.93 198.425;" xml:space="preserve">
<style type="text/css">
	.st0{fill:#FFFFFF;}
</style>
<g>
	<path class="st0" d="M399.573,25.529h-13.834v13.247h5.628l-5.628,15.358h6.567l7.267-15.358V25.529z M397.322,27.78v10.492
		l-6.43,13.588h-1.942l4.528-12.303l1.121-3.031h-6.61V27.78H397.322z"/>
	<g>
		<g>
			<g>
				<path class="st0" d="M34.948,86.919H18.283V37.943H3.019v-13.89h46.866v13.89H34.948V86.919z M21.235,83.966h10.761V34.99
					h14.936v-7.985H5.971v7.985h15.264V83.966z"/>
			</g>
		</g>
	</g>
	<g>
		<g>
			<g>
				<path class="st0" d="M104.611,86.911H88.422V61.025H74.397v25.886H58.045V24.014h16.27v22.702h13.862V24.014h16.434V86.911z
					 M91.382,83.952h10.27V26.973H91.137v22.702H71.355V26.973h-10.35v56.979h10.432V58.066h19.944V83.952z"/>
			</g>
		</g>
	</g>
	<g>
		<g>
			<g>
				<path class="st0" d="M160.755,86.911h-44.768V23.93h42.904v13.907H131.9v9.813h18.561v13.906h-18.398v11.203h28.692V86.911z
					 M118.933,83.965h38.875v-8.259h-28.692V58.61h18.398v-8.013h-18.561V34.89h26.99v-8.014h-37.011V83.965z"/>
			</g>
		</g>
	</g>
	<path class="st0" d="M21.048,174.279l-11.166-4.632v-3.648l16.115,6.79v2.981l-16.115,6.788v-3.648L21.048,174.279z"/>
	<path class="st0" d="M32.627,166.474h2.506v-6.09h4.409v6.09h3.236v3.237h-3.236v8.723c0,0.539,0,1.428,2.221,1.428
		c0.254,0,0.317,0,1.237-0.096v3.458c-1.808,0.223-1.998,0.254-2.665,0.254c-1.903,0-5.202-0.254-5.202-4.599v-9.167h-2.506V166.474
		z"/>
	<path class="st0" d="M45.91,160.003h4.472v6.819l-0.063,2.284h0.191c1.269-2.251,2.918-3.045,4.663-3.045
		c1.332,0,2.538,0.54,3.267,1.65c0.761,1.141,0.761,2.443,0.761,3.489v12.086H54.76v-10.817c0-1.015-0.032-2.507-1.523-2.507
		c-1.047,0-1.618,0.54-2.855,1.65v11.674H45.91V160.003z"/>
	<path class="st0" d="M66.756,175.801c-0.031,1.713-0.031,4.599,3.077,4.599c1.365,0,2.475-0.254,4.473-1.238l0.476,3.363
		c-1.713,0.603-3.108,1.11-5.329,1.11c-2.061,0-5.456-0.444-6.471-4.314c-0.317-1.238-0.412-3.235-0.412-3.363
		c0-2.95,0-5.709,1.141-7.581c1.301-2.158,3.775-2.379,5.139-2.379c2.728,0,4.028,1.141,4.854,2.379
		c1.015,1.49,1.015,3.076,1.015,7.423H66.756z M71.039,173.294c0-2.538-0.032-4.473-2.253-4.473c-2.093,0-2.061,2.348-2.03,4.473
		H71.039z"/>
	<path class="st0" d="M86.66,168.283c1.428-1.11,2.855-2.222,6.44-2.222c1.173,0,3.68,0.286,5.044,1.65
		c1.269,1.269,1.269,2.538,1.269,3.425v8.248c0,0.095,0.127,1.015,0.983,1.046v3.045h-1.301c-2.156,0-3.045-1.333-3.457-2.092H95.51
		c-0.539,0.697-0.856,1.077-1.554,1.49c-0.222,0.128-1.46,0.856-2.918,0.856c-1.776,0-4.504-0.92-4.504-4.789
		c0-1.555,0.571-4.029,3.616-5.426c1.618-0.729,3.331-1.077,4.822-1.172c0-1.65,0-2.125-0.317-2.57
		c-0.286-0.413-0.984-0.729-1.84-0.729c-1.935,0-3.14,1.046-4.06,1.839L86.66,168.283z M94.939,174.689
		c-0.983,0.191-4.187,0.794-4.187,3.68c0,1.141,0.698,2.061,1.776,2.061c2.03,0,2.411-2.03,2.411-3.14V174.689z"/>
	<path class="st0" d="M111.394,168.537v-8.533h4.505v23.283h-4.188v-2.728h-0.19c-1.523,2.569-2.982,2.982-4.632,2.982
		c-2.981,0-3.902-2.379-4.155-3.807c-0.222-1.269-0.222-2.855-0.222-4.091c0-3.078,0-4.98,0.349-6.536
		c0.381-1.776,1.65-3.108,3.965-3.108c2.791,0,3.839,1.649,4.409,2.538H111.394z M111.394,170.788
		c-0.381-0.349-1.491-1.269-2.601-1.269c-1.713,0-1.713,1.65-1.713,4.442c0,2.092,0,3.299,0.095,3.933
		c0.222,1.396,0.952,1.713,1.713,1.713c1.3,0,2.093-0.856,2.506-1.3V170.788z"/>
	<path class="st0" d="M123.527,166.474l1.713,6.631l0.666,2.697h0.159c0.316-1.301,0.38-1.681,0.729-3.014l1.587-6.313h4.283
		l-4.442,16.813h-4.314l-4.727-16.813H123.527z"/>
	<path class="st0" d="M140.263,175.801c-0.033,1.713-0.033,4.599,3.076,4.599c1.364,0,2.474-0.254,4.473-1.238l0.476,3.363
		c-1.714,0.603-3.109,1.11-5.329,1.11c-2.063,0-5.457-0.444-6.472-4.314c-0.318-1.238-0.413-3.235-0.413-3.363
		c0-2.95,0-5.709,1.143-7.581c1.3-2.158,3.774-2.379,5.139-2.379c2.728,0,4.028,1.141,4.853,2.379
		c1.015,1.49,1.015,3.076,1.015,7.423H140.263z M144.544,173.294c0-2.538-0.031-4.473-2.251-4.473c-2.094,0-2.063,2.348-2.03,4.473
		H144.544z"/>
	<path class="st0" d="M152.127,166.474h4.124v3.109h0.095c0.982-1.808,2.6-3.458,4.822-3.458c4.25,0,4.25,3.585,4.25,4.853v12.309
		h-4.473v-10.976c0-0.666,0.031-2.284-1.459-2.284c-1.269,0-2.03,0.825-2.886,1.745v11.515h-4.473V166.474z"/>
	<path class="st0" d="M168.082,166.474h2.507v-6.09h4.409v6.09h3.235v3.237h-3.235v8.723c0,0.539,0,1.428,2.22,1.428
		c0.254,0,0.318,0,1.238-0.096v3.458c-1.809,0.223-1.999,0.254-2.665,0.254c-1.903,0-5.202-0.254-5.202-4.599v-9.167h-2.507V166.474
		z"/>
	<path class="st0" d="M194.87,166.474v16.813h-4.06v-2.855h-0.191c-0.951,1.586-2.156,3.268-4.853,3.268
		c-3.997,0-4.155-3.299-4.155-4.473v-12.752h4.44v10.945c0,1.141,0.254,2.346,1.523,2.346c0.508,0,1.207-0.316,1.428-0.444
		c0.794-0.444,1.174-0.982,1.428-1.3v-11.547H194.87z"/>
	<path class="st0" d="M198.405,166.474h4.25v3.807h0.126c1.586-3.679,3.395-4.187,5.013-4.25v5.805c-1.871,0-3.045,0-4.854,1.523
		v9.928h-4.535V166.474z"/>
	<path class="st0" d="M215.287,175.801c-0.033,1.713-0.033,4.599,3.076,4.599c1.364,0,2.474-0.254,4.473-1.238l0.476,3.363
		c-1.714,0.603-3.109,1.11-5.329,1.11c-2.063,0-5.457-0.444-6.472-4.314c-0.318-1.238-0.413-3.235-0.413-3.363
		c0-2.95,0-5.709,1.143-7.581c1.3-2.158,3.774-2.379,5.138-2.379c2.729,0,4.029,1.141,4.854,2.379
		c1.015,1.49,1.015,3.076,1.015,7.423H215.287z M219.568,173.294c0-2.538-0.031-4.473-2.251-4.473c-2.094,0-2.063,2.348-2.03,4.473
		H219.568z"/>
	<path class="st0" d="M236.303,160.003h4.473v8.533h0.095c2.127-2.507,3.68-2.538,4.506-2.538c3.996,0,4.25,3.743,4.25,6.344
		l0.031,2.569c0,1.904-0.031,3.489-0.221,4.822c-0.128,0.793-0.761,3.807-4.314,3.807c-1.968,0-3.458-1.174-4.442-2.982h-0.19v2.728
		h-4.188V160.003z M240.776,178.306c0.413,0.444,1.207,1.3,2.507,1.3c1.776,0,1.84-1.554,1.84-4.948
		c0-3.807-0.064-5.139-1.745-5.139c-0.825,0-1.3,0.254-2.602,1.269V178.306z"/>
	<path class="st0" d="M257.523,175.801c-0.033,1.713-0.033,4.599,3.076,4.599c1.364,0,2.474-0.254,4.473-1.238l0.476,3.363
		c-1.714,0.603-3.109,1.11-5.329,1.11c-2.063,0-5.457-0.444-6.472-4.314c-0.318-1.238-0.412-3.235-0.412-3.363
		c0-2.95,0-5.709,1.143-7.581c1.3-2.158,3.774-2.379,5.138-2.379c2.729,0,4.029,1.141,4.854,2.379
		c1.015,1.49,1.015,3.076,1.015,7.423H257.523z M261.804,173.294c0-2.538-0.031-4.473-2.251-4.473c-2.094,0-2.063,2.348-2.03,4.473
		H261.804z"/>
	<path class="st0" d="M271.714,184.46c0.445,0.571,1.174,1.554,2.697,1.554c0.73,0,2.094-0.318,2.602-1.428
		c0.223-0.507,0.254-1.11,0.254-1.935v-2.538h-0.159c-0.951,1.428-2.379,2.412-4.537,2.412c-1.902,0-3.235-1.396-3.679-2.569
		c-0.349-0.92-0.349-2.158-0.349-2.919v-4.694c0-1.618,0-6.441,4.25-6.441c1.682,0,2.538,0.73,3.14,1.238
		c0.571,0.476,0.953,0.984,1.491,1.966h0.126v-2.854h4.188v14.273c0,3.204-0.033,8.279-7.011,8.279c-3.806,0-5.36-1.681-5.773-2.696
		L271.714,184.46z M277.265,171.328c-0.38-0.54-1.681-1.079-2.379-1.079c-1.015,0-1.459,0.539-1.65,1.11
		c-0.221,0.634-0.316,2.348-0.316,2.919c0,0.602,0.095,2.981,0.316,3.584c0.318,0.887,0.984,1.205,1.65,1.205
		c1.236,0,1.999-0.825,2.379-1.205V171.328z"/>
	<path class="st0" d="M290.496,163.682h-4.378v-3.807h4.378V163.682z M286.118,166.474h4.378v16.813h-4.378V166.474z"/>
	<path class="st0" d="M295.887,166.474h4.124v3.109h0.095c0.982-1.808,2.602-3.458,4.822-3.458c4.25,0,4.25,3.585,4.25,4.853v12.309
		h-4.473v-10.976c0-0.666,0.033-2.284-1.459-2.284c-1.269,0-2.03,0.825-2.886,1.745v11.515h-4.473V166.474z"/>
	<path class="st0" d="M320.731,170.503c-1.491-1.015-2.22-1.364-3.268-1.364c-1.046,0-1.713,0.475-1.713,1.3
		c0,0.92,0.951,1.364,2.253,1.935c2.379,1.079,5.139,2.412,5.139,5.996c0,4.281-3.839,5.36-5.711,5.36
		c-3.045,0-4.758-1.364-5.647-2.094l1.999-3.045c0.856,0.889,1.871,1.904,3.553,1.904c1.333,0,1.745-0.889,1.745-1.492
		c0-0.951-0.666-1.236-1.999-1.871c-3.681-1.713-5.265-3.266-5.265-5.899c0-1.681,0.698-3.363,2.379-4.378
		c1.364-0.825,2.505-0.825,3.394-0.825c2.125,0,4.155,0.951,5.044,1.713L320.731,170.503z"/>
	<path class="st0" d="M335.762,160.003h4.473v6.819l-0.064,2.284h0.19c1.269-2.251,2.919-3.045,4.663-3.045
		c1.333,0,2.538,0.54,3.268,1.65c0.761,1.141,0.761,2.443,0.761,3.489v12.086h-4.442v-10.817c0-1.015-0.031-2.507-1.523-2.507
		c-1.046,0-1.618,0.54-2.854,1.65v11.674h-4.473V160.003z"/>
	<path class="st0" d="M356.854,175.801c-0.033,1.713-0.033,4.599,3.077,4.599c1.364,0,2.474-0.254,4.473-1.238l0.476,3.363
		c-1.714,0.603-3.109,1.11-5.329,1.11c-2.063,0-5.457-0.444-6.472-4.314c-0.318-1.238-0.413-3.235-0.413-3.363
		c0-2.95,0-5.709,1.143-7.581c1.3-2.158,3.774-2.379,5.138-2.379c2.729,0,4.029,1.141,4.854,2.379
		c1.015,1.49,1.015,3.076,1.015,7.423H356.854z M361.136,173.294c0-2.538-0.031-4.473-2.251-4.473c-2.094,0-2.063,2.348-2.03,4.473
		H361.136z"/>
	<path class="st0" d="M369.153,166.474h4.25v3.807h0.128c1.585-3.679,3.394-4.187,5.012-4.25v5.805c-1.871,0-3.045,0-4.854,1.523
		v9.928h-4.535V166.474z"/>
	<path class="st0" d="M386.28,175.801c-0.033,1.713-0.033,4.599,3.076,4.599c1.364,0,2.474-0.254,4.473-1.238l0.476,3.363
		c-1.714,0.603-3.109,1.11-5.329,1.11c-2.063,0-5.457-0.444-6.472-4.314c-0.318-1.238-0.413-3.235-0.413-3.363
		c0-2.95,0-5.709,1.143-7.581c1.3-2.158,3.774-2.379,5.139-2.379c2.728,0,4.028,1.141,4.853,2.379
		c1.015,1.49,1.015,3.076,1.015,7.423H386.28z M390.562,173.294c0-2.538-0.031-4.473-2.251-4.473c-2.094,0-2.063,2.348-2.03,4.473
		H390.562z"/>
	<g>
		<g>
			<path class="st0" d="M195.607,86.947h-20.666V24.293h21.076c5.188,0,10.506,0.32,14.261,2.644
				c4.419,2.701,7.061,7.876,7.061,13.839c0,6.051-2.445,10.903-6.428,13.153c3.776,1.829,7.74,6.276,7.74,14.073
				c0,4.348-0.598,9.391-5.035,13.827C208.945,86.59,203.453,86.947,195.607,86.947z M190.277,74.974h5.33
				c4.979,0,7.299-2.345,7.299-7.381c0-3.388-1.044-5.545-3.102-6.411c-1.485-0.58-5.592-0.636-9.527-0.641V74.974z M190.277,36.02
				v12.791c9.777-0.045,11.563-0.738,11.563-6.722c0-5.604-3.22-6.068-6.806-6.068H190.277z"/>
		</g>
	</g>
	<g>
		<g>
			<path class="st0" d="M249.616,87.017c-3.59,0-15.578-0.917-19.098-12.716c-1.441-4.682-1.553-10.407-1.553-12.05V46.664
				c0-4.706,0.557-11.573,5.374-16.861c4.417-4.897,10.833-5.927,15.436-5.927c7.13,0,12.41,1.962,16.143,5.999
				c3.719,3.992,5.379,9.781,5.379,18.767v14.084c0,8.788-1.535,14.041-5.298,18.132C262.22,84.946,256.708,87.017,249.616,87.017z
				 M250.17,36.932c-5.19,0-5.855,4.144-5.855,7.754v20.177c0,6.748,1.544,9.257,5.697,9.257c5.268,0,5.697-4.192,5.697-9.257
				V44.686C255.709,39.862,255.337,36.932,250.17,36.932z"/>
		</g>
	</g>
	<g>
		<g>
			<path class="st0" d="M311.778,86.947h-15.745v-24.71l-19.826-37.943h16.972l7.968,15.68c0.404,0.809,1.645,3.48,2.552,5.446
				c0.289-0.611,0.573-1.195,0.958-1.986c0.387-0.797,0.879-1.807,1.583-3.272l7.635-15.868h16.794l-18.892,37.442V86.947z"/>
		</g>
	</g>
	<g>
		<g>
			<path class="st0" d="M353.554,86.886c-9.76,0-16.535-2.011-22.284-12.29l-0.533-0.952l11.883-7.89l0.56,1.287
				c2.004,4.603,5.494,7.137,9.824,7.137c0.666,0,6.511-0.149,6.511-5.334c0-3.424-1.621-4.166-10.233-7.533
				c-8.949-3.467-16.986-7.582-16.986-19.686c0-10.626,7.821-17.492,19.924-17.492c8.666,0,15.056,3.453,20.111,10.868l0.673,0.986
				l-11.575,7.652l-0.604-1.155c-1.398-2.676-4.573-5.801-8.919-5.801c-5.168,0-5.569,3.362-5.569,4.393
				c0,2.975,2.388,4.407,6.512,5.873l7.306,2.67c4.389,1.596,8.26,4.273,10.353,7.16c0.798,1.065,3.44,5.035,3.44,10.81
				c0,2.706,0,10.938-8.725,16.224C361.733,85.925,356.728,86.886,353.554,86.886z"/>
		</g>
	</g>
	<g>
		<g>
			<path class="st0" d="M30.398,154.735H9.887V92.551h20.918c5.149,0,10.427,0.318,14.154,2.625
				c4.386,2.68,7.008,7.817,7.008,13.735c0,6.006-2.427,10.821-6.38,13.054c3.748,1.816,7.682,6.229,7.682,13.968
				c0,4.315-0.594,9.32-4.997,13.724C43.635,154.381,38.184,154.735,30.398,154.735z M25.107,142.852h5.291
				c4.942,0,7.244-2.328,7.244-7.325c0-3.363-1.036-5.503-3.079-6.363c-1.474-0.576-5.55-0.631-9.456-0.636V142.852z M25.107,104.19
				v12.695c9.704-0.045,11.476-0.733,11.476-6.672c0-5.563-3.196-6.023-6.756-6.023H25.107z"/>
		</g>
	</g>
	<g>
		<g>
			<path class="st0" d="M110.743,154.735H93.761l-11.313-24.418h-2.395v24.418H64.669V92.551H85.18c6.941,0,23.197,0,23.197,18.557
				c0,8.351-3.667,13.924-10.904,16.587L110.743,154.735z M80.053,104.271v14.081c6.142-0.002,7.218-0.034,8.796-0.583
				c3.091-1.091,3.657-3.154,3.657-6.823c0-4.264-1.497-5.413-3.114-6.02C87.679,104.31,86.245,104.274,80.053,104.271z"/>
		</g>
	</g>
	<g>
		<g>
			<path class="st0" d="M146.88,154.735h-29.708v-7.732h7v-46.801h-7v-7.651h29.708v7.651h-7.081v46.638h7.081V154.735z"/>
		</g>
	</g>
	<g>
		<g>
			<path class="st0" d="M176.393,154.616c-6.797,0-12.048-2.254-15.605-6.702c-3.434-4.378-4.123-9.531-4.123-16.429V116.09
				c0-5.07,0-12.732,6.254-18.492c4.857-4.423,10.659-4.794,15.717-4.794c11.707,0,19.573,7.524,19.573,18.722v1.16h-14.647
				l-0.051-1.107c-0.197-4.259-2.065-6.243-5.881-6.243c-4.067,0-5.802,2.313-5.802,7.736v17.871c0,7.997,1.66,10.831,6.344,10.831
				c4.691,0,5.338-3.012,5.338-6.266V132.8h-6.653v-11.759h21.352v32.647h-7.507l-1.381-3.354
				C187.512,152.259,184.298,154.616,176.393,154.616z"/>
		</g>
	</g>
	<g>
		<g>
			<path class="st0" d="M261.436,154.735h-15.352l-3.011-11.883h-16.42l-3.093,11.883h-15.335l17.537-62.184h17.714L261.436,154.735
				z M229.538,130.236h10.325l-5.195-21.292L229.538,130.236z"/>
		</g>
	</g>
	<g>
		<g>
			<path class="st0" d="M275.223,154.735h-1.221V92.551h15.709c15.349,0,20.609,3.161,24.121,8.261
				c2.982,4.379,3.797,9.128,3.797,22.099l-0.081,10.184c0,9.176-2.992,15.349-8.89,18.335c-4.421,2.252-8.106,2.705-13.227,3.139
				C293.676,154.735,285.533,154.735,275.223,154.735z M289.792,141.631h2.523c5.166,0,9.441-0.845,9.441-11.232
				c0-1.028,0.041-2.364,0.081-3.701c0.041-1.309,0.081-2.618,0.081-3.625c0-6.74-0.141-11.715-1.979-14.361
				c-2.029-2.945-4.197-3.127-10.148-3.137V141.631z"/>
		</g>
	</g>
	<g>
		<g>
			<path class="st0" d="M372.617,154.735h-44.44V92.551h44.44v13.348h-28.976v10.255h18.639v13.348h-18.476v11.639h28.813V154.735z"
				/>
		</g>
	</g>
	<g>
		<path class="st0" d="M502.004,185.411c3.647,0.237,3.124-5.474-0.428-4.692C499.101,181.26,499.483,185.253,502.004,185.411
			 M503.709,175.451c-2.963,0.332,1.187,5.419,2.99,5.123C509.178,178.818,505.705,175.225,503.709,175.451 M507.835,174.03
			c-0.03,0.27,0.163,0.313,0.144,0.566c0.564-0.055,1.035-0.199,1.424-0.428c0.033-0.267-0.161-0.31-0.142-0.569
			C508.625,173.586,508.377,173.954,507.835,174.03 M496.313,153.678c1.533,0.142,4.101,0.387,5.406-0.144
			C500.09,152.826,497.17,151.418,496.313,153.678 M493.322,146.848c0.449,3.001,4.308,3.987,7.113,3.701
			C501.835,147.45,496.185,145.222,493.322,146.848 M493.042,153.251c1.552-1.958-0.656-1.999-1.996-3.557
			c-1.005-1.168-1.236-2.097-0.855-3.698c-2.1-0.177-3.886-0.67-5.975-0.855C485.58,149.422,488.766,151.878,493.042,153.251
			 M497.593,145.141c1.59,0.071,1.814-1.939,0.425-2.277C497.767,143.455,497.233,144.402,497.593,145.141 M452.766,121.521
			c-0.142,1.653,1.04,1.993,1.849,2.701c0.014-0.986,0.335-1.659,0.427-2.56C454.536,121.082,453.352,120.957,452.766,121.521
			 M450.773,117.962c0.123,1.43,2.762,1.571,4.695,1.708c-0.095-0.716,0.242-0.991,0.142-1.708
			C454.155,117.855,450.577,115.652,450.773,117.962 M450.631,76.267c0.956-0.101,2.111,0.349,2.704,0.142
			c-0.656-0.58-0.757-1.71-1.424-2.279C451.287,74.647,450.702,75.197,450.631,76.267 M460.307,73.704
			c-0.134,1.999-1.326,2.944-2.99,3.415c1.912,0.057,4.074,0.545,5.553,0.569c0.18-2.094,1.081-4.232,0.855-6.261
			C462.829,72.43,461.987,73.487,460.307,73.704 M454.332,71.286c-0.749,2.045,0.392,5.803,2.843,4.126
			c1.786-1.223,0.447-5.191-0.566-6.261C455.95,69.883,454.806,69.987,454.332,71.286 M460.307,71.142
			c1.89-0.76,2.418-4.706,1.424-6.261C458.63,64.655,458.583,69.769,460.307,71.142 M464.577,64.026
			c-0.599,0.926-1.231,3.911-0.286,4.981c0.485-1.375,0.812-3.636,0.855-4.981H464.577z M493.891,63.315
			c-3.241,25.649-6.991,51.542-10.104,76.842c3.129,0.387,6.027,0.999,9.254,1.286c1.068-8.225,1.909-16.683,3.126-24.761
			c8.434,0.852,16.024,2.149,24.047,3.129c1.062-10.61,1.98-21.362,2.849-32.163c-7.514-1.212-15.687-1.77-23.053-3.129
			c0.841-6.89,1.623-13.843,2.563-20.635c-2.808-0.324-5.518-0.743-8.396-0.994C493.998,62.947,493.883,63.072,493.891,63.315
			 M469.272,59.9c0-0.335-0.387,0.052-0.286,0.286c-1.206,6.667-2.239,13.505-3.557,20.063c-6.857-0.784-14.219-1.797-20.632-2.56
			c-2.247,10.229-4.281,20.67-6.403,31.019c7.266,1.084,14.856,1.841,21.912,3.132c-1.291,8.197-2.838,16.138-4.123,24.336
			c3.047,0.79,6.923,0.76,9.957,1.566c3.971-25.586,8.363-51.498,12.1-76.845C475.147,60.668,472.328,60.167,469.272,59.9
			 M494.319,59.9c1.343-0.03,2.859,0.109,3.698-0.425c-1.607,0.071-2.01-0.18-3.557-0.144
			C494.472,59.578,494.428,59.775,494.319,59.9 M415.056,140.445c0.014,0.112,0.468,0.43,0.425,0.142
			c-0.294-4.126-3.2-9.553-0.566-13.091c3.984,31.825,35.139,36.485,51.37,56.066c5.703-4.227,13.625-6.152,21.346-8.538
			c6.754-2.086,13.674-3.894,19.924-6.261c12.939-4.902,22.716-11.498,27.321-24.902c2.315,1.977,0.166,5.643-0.997,8.11
			c-0.885,1.879-2.456,3.543-2.274,5.409c2.064-0.73,3.205-4.379,5.12-5.264c0.068,3.295-1.65,4.799-2.557,7.113
			c2.655,0.763,3.143-3.614,4.834-4.27c1.106,3.382-1.991,5.275-2.56,7.402c2.309-1.106,3.829-3.004,5.125-5.123
			c1.8,3.023-2.184,5.433-3.704,7.399c0.082,0.629,0.46,0.964,0.425,1.708c12.119-4.965,10.044-27.381,6.552-40.842
			c-9.66,4.861-22.884,6.149-28.748,14.799c1.108-0.215,1.547-1.106,2.987-0.994c-0.003,1.185-1.032,1.337-0.711,2.843
			c1.566-0.24,2.508-1.855,3.981-1.705c0.801,1.808-3.483,2.086-2.557,3.984c2.767-0.221,3.167-3.565,6.117-3.129
			c-0.245,2.497-2.252,4.464-3.843,6.117c-4.592,4.779-11.92,9.21-20.349,9.676c-10.942,0.605-19.646-3.712-20.352-13.519
			c-0.316-4.412,0.871-8.325,1.424-12.38c3.244-23.71,6.509-48.402,9.82-71.864c-0.493-0.218-1.296-0.125-1.993-0.142
			c-2.456,20.213-5.768,42.147-8.252,62.474c-0.863,7.048-2.364,14.08-2.704,20.915c-0.147,2.925,0.248,4.951,0.997,6.833
			c0.441,1.114,1.509,2.198,1.138,3.415c-1.609-0.684-2.427-2.576-3.132-4.129c-2.214-4.864-1.013-10.567-0.144-16.223
			c3.737-24.254,6.49-49.69,9.962-73.427c-2.356-0.493-5.643-0.801-7.824-0.997c-3.388,23.037-7.593,48.078-11.1,71.294
			c-0.523,3.44-0.694,7.135-1.569,10.245c-1.397,4.995-5.422,9.72-10.101,11.239c-1.751,0.575-3.791,0.719-5.692,0.575
			c-7.56-0.585-13.546-5.297-18.075-9.82c-2.274-2.279-4.36-4.918-6.261-7.685c-1.92-2.794-4.058-5.806-5.123-8.824
			c-0.526-1.487-1.136-3.529,0.144-4.839c1.716,3.41,3.66,6.585,5.833,9.537c-0.259-0.645-0.561-1.239-0.425-2.277
			c1.269,0.907,1.904,2.459,3.271,3.273c-0.065-1.321-1.092-2.514-0.428-3.701c1.585,1.174,2.165,4.091,5.125,3.415
			c-0.972-6.923-6.272-9.777-10.534-13.519c-3.589-3.151-7.002-6.158-9.107-10.531c-4.714,4.978-9.575,11-12.378,18.361
			c-1.473,3.87-2.421,8.584-1.707,13.091c0.501,3.17,1.844,6.117,3.129,8.393c0.436,0.771,0.694,1.819,1.566,2.135
			c0.172-1.751-2.862-5.087-0.994-5.692c0.964-0.313,1.019,1.119,1.563,0.852c-0.18-1.408,0.046-1.8-0.144-2.988
			c0.588,0.109,1.634,1.16,1.852,0.714c-0.071-0.983-0.738-2.802,0.144-3.415c1.212,0.218,1.555,2.789,2.416,2.416
			c-0.359-2.119-1-5.452,0.283-6.83C413.09,135.96,413.997,138.275,415.056,140.445 M470.838,36.419
			c-6.089,0.283-12.075,0.874-17.078,1.993c-0.763,2.745-1.225,5.793-1.849,8.679c9.927,4.033,20.795,7.674,33.301,9.393
			c12.397,1.705,26.547,0.624,39.418-0.997c0.305-3.012,0.61-6.032,0.852-9.104C510.556,40.147,491.931,35.439,470.838,36.419
			 M523.206,43.677c-6.561-2.688-13.434-5.019-20.918-6.544c-14.058-2.87-28.925-3.524-43.971-1.28
			c-1.65,0.245-3.984,0.011-4.412,1.422c8.889-0.991,19.159-2.506,29.172-1.708c15.077,1.201,28.65,4.534,40.27,8.965
			c0.692,0.261,1.476,0.956,2.277,0.569C525.379,44.023,523.979,43.993,523.206,43.677 M504.85,33.859
			c-0.359,2.835,3.93,2.312,5.833,3.273C511.291,34.325,505.237,30.782,504.85,33.859 M501.005,29.02
			c-0.752,0.621-1.642,1.108-2.557,1.566c-0.065,1.266-0.398,2.263-0.43,3.557c1.667,0.365,2.947,0.768,4.984,0.997
			c-0.904-1.269-0.125-2.938,0.283-4.126C502.459,30.414,501.784,29.668,501.005,29.02 M502.429,28.026
			c1.291,1.503,3.287,2.309,5.975,2.418C509.594,26.847,503.548,24.706,502.429,28.026 M499.014,26.743
			c0.771-0.084,1.438-0.27,1.708-0.852c-0.599-0.158-1.005-0.515-1.566-0.711C499.237,25.828,498.905,26.065,499.014,26.743
			 M499.872,21.762c-0.229,0.346-0.534,0.607-0.43,1.283c1.201,1.332,3.314,1.887,5.409,1.28
			C504.447,22.211,502.312,21.833,499.872,21.762 M509.262,19.06c0.253,1.645,3.001,1.699,3.271-0.286
			C511.841,17.119,508.908,16.778,509.262,19.06 M497.593,17.35c-0.553,0.632-0.134,1.784,0.139,2.421
			c0.94,0.245,2.721,0.861,3.273-0.142C500.591,18.148,499.379,17.462,497.593,17.35 M497.593,23.184
			c-0.193-3.374-2.623-5.542-5.267-5.833c-7.824-0.855-5.877,9.867-7.541,15.229c2.299,0.354,4.989,0.321,7.258,0.711
			c0.259-2.097,0.542-4.616,0.852-6.975c0.289-2.176,0.275-4.897,2.279-5.55c0.651,4.287-0.91,8.622-1.138,12.949
			c0.866-0.109,1.332,0.188,2.132,0.144C496.255,30.082,497.802,26.871,497.593,23.184 M502.288,16.07
			c0.041,0.417-0.321,0.438-0.283,0.855c0.234,0.618,1.217,0.487,1.28,1.28c-0.035,2.342,2.07,3.453,3.843,2.421
			c0.03-0.112,0.003-0.283,0.142-0.286C506.969,17.557,504.995,16.446,502.288,16.07 M494.888,14.79
			c-4.82-3.274-13.693,1.054-10.104,6.83c0.12-5.093,7.064-7.25,11.242-4.412C496.541,16.062,495.651,15.308,494.888,14.79
			 M494.744,8.388c-8.758-2.465-18.41,3.271-17.645,11.953c0.395,4.488,3.162,6.754,6.403,8.679
			c0.332-1.566,0.411-3.382,0.852-4.837c-0.907-1.348-1.909-2.214-2.132-3.987c-0.852-6.732,7.576-9.807,12.952-7.113
			c2.002,1.002,2.647,3.407,4.978,3.843c0.035-1.531,1.255-1.876,2.563-2.135C501.051,11.585,498.178,9.352,494.744,8.388
			 M505.417,15.359c1.136,0.3,1.836,0.697,2.987,0.569c0.899-0.101,1.563-0.659,2.28-0.711c2.489-0.185,4.483,1.492,4.553,3.701
			c0.071,2.282-1.563,3.677-3.412,3.84c-0.959,0.084-1.925-0.572-2.993-0.428c-0.523,0.071-2.105,0.88-1.852,2.135
			c0.28,1.362,3.84,2.01,3.987,3.843c0.095,1.4-0.839,2.146-0.708,3.129c0.158,1.22,2.168,2.152,2.846,3.701
			c0.365,0.839,0.398,1.61,0.425,2.846c5.079,1.659,10.09,3.382,14.66,5.55c-0.479,4.6-0.855,9.298-1.283,13.946
			c-5.716,0.643-12.296,1.405-18.786,1.708c-3.562,0.163-7.086-0.204-8.679,1.849c1.362,0.349,3.001,0.414,4.412,0.713
			c1.261,1.25,1.825,3.2,2.985,4.554c-0.806,5.403-1.296,11.128-1.988,16.65c6.544,0.991,13.233,1.846,20.063,2.56
			c0.392,1.315,1.887,2.315,2.135,3.557c0.223,1.133-0.161,3.02-0.286,4.553c-0.784,9.962-1.977,21.484-2.56,31.308
			c-8.05-0.912-15.766-2.168-23.767-3.132c-0.844,5.7-1.337,11.754-2.132,17.506c1.827,1.729,4.191,2.922,4.126,6.544
			c0.831,1.56,2.364,3.113,1.852,5.553c0.313,0.727,1.274,0.809,1.28,1.846c1.855-0.591,4.063-1.348,6.403-2.702
			c1.397-0.809,4.717-2.827,4.556-4.412c-0.218-2.078-4.259-1.781-6.83-1.993c2.756-11.373,13.475-14.815,23.903-18.5
			c3.464-1.22,7.059-2.38,9.962-4.123c0.948-0.572,1.588-1.58,2.707-1.852c2.413,9.036,6.335,20.771,4.978,32.446
			c-1.125,9.668-5.923,16.149-13.091,20.49c-0.866,0.52-2.432,1.479-3.132,1.563c-1.351,0.169-2.753-0.776-4.126-0.852
			c-0.278-0.607,0.654-0.828,0.994-1.138c1.073-0.975,2.538-2.653,2.704-4.698c0.286-3.521-2.797-6.283-6.686-4.692
			c-1.185,0.482-2.432,1.628-3.701,2.56c-3.29,2.413-8.151,4.91-11.956,6.405c0.041,2.309-0.035,4.513-0.994,5.831
			c0.286,1.841,0.098,3.587-0.714,4.839c-0.504,0.784-1.62,1.002-2.135,1.852c-0.575,0.95-0.21,2.083-0.569,3.415
			c-1.816,0.806-4.698,2.143-7.113,1.849c-1.876-0.232-4.943-2.873-5.123-5.123c-0.245-3.124,2.748-5.185,3.701-7.541
			c-3.497-0.153-7.775,1.522-11.242,2.704c-8.968,3.042-17.713,6.798-23.339,12.805c-1.964-8.154-8.647-12.462-15.512-16.789
			c-10.602-6.686-19.578-13.668-27.176-23.481c-1.462-1.887-2.68-4.169-4.273-5.836c-0.757-0.792-2.713-2.04-3.557-1.993
			c-4.344,0.234-2.958,7.495-3.698,10.817c-1.811-0.18-3.273-1.462-4.553-2.563c-3.807-3.26-6.593-8.415-6.975-15.087
			c-0.504-8.848,2.753-16.332,6.264-22.198c3.652-6.106,8.524-11.016,13.516-14.796c0.637,7.285,5.327,10.776,10.39,14.515
			c4.747,3.502,10.379,7.034,10.534,14.23c0.046,2.369-0.97,5.161-1.569,7.113c-1.16-1.024-2.685-1.678-3.987-2.56
			c-0.488,0.411-1.005,0.795-1.563,1.141c3.464,4.224,9.401,10.602,16.223,12.378c6.217,1.615,11.718-1.397,14.232-5.267
			c-2.723-0.675-5.814-0.082-7.83-1.136c-1.604-0.844-1.708-2.603-2.988-3.701c0.82-3.352,1.22-7.13,1.993-10.531
			c-2.1-0.891-3.036-2.944-3.701-5.264c-2.601-0.912-3.007-4.014-3.559-6.975c-1.607-0.035-3.118-0.504-4.837-0.711
			c-1.623-0.199-3.742,0.006-4.981-0.569c-1.664-0.773-1.705-3.096-3.129-4.129c2.301-11.403,4.796-22.618,7.113-34.009
			c2.312,0.201,4.27,0.754,6.689,0.855c0.084-1.95,2.492-2.862,3.271-4.129c0.286-0.463,0.166-1.108,0.43-1.566
			c1.038-1.811,3.317-2.666,4.981-3.84c0.417-0.629,0.61-1.345,1.136-1.852c1.209-1.16,2.846-1.171,4.556-1.849
			c1.484-0.591,2.503-1.871,3.843-2.135c0-1.234,0.392-2.072,0.428-3.271c4.21,0.242,8.385,1.285,12.38,1.28
			c0.417-1.234-0.91-1.008-1.424-1.141c-9.758-2.506-19.543-5.12-28.034-8.821c0.725-4.73,1.86-9.05,2.702-13.66
			c8.826-1.743,20.809-2.919,30.883-2.277c0.784-1.716-0.43-1.61-1.852-2.563c-4.028-2.699-8.263-8.252-5.406-15.226
			c2.127-5.204,8.385-9.336,16.079-8.682C498.208,6.656,503.303,9.943,505.417,15.359"/>
		<path class="st0" d="M460.591,39.267c-0.125,2.486-0.923,5.52-1.421,8.11c-0.264-0.112-0.518-0.237-0.853-0.283
			c0.572-2.557,0.945-5.316,1.563-7.827H460.591z"/>
		<path class="st0" d="M458.032,39.409c0.335,0.046,0.534,0.223,0.994,0.142c-0.605,2.334-0.877,5.003-1.563,7.258
			c-0.436,0.104-0.419-0.245-0.852-0.142C457.114,44.281,457.648,41.923,458.032,39.409"/>
		<path class="st0" d="M455.754,39.835c0.436-0.103,0.517,0.144,0.855,0.142c0.022,0.961-0.357,2.086-0.572,3.132
			c-0.174,0.88,0.044,2.593-1.277,2.421C454.967,43.503,455.511,41.823,455.754,39.835"/>
		<path class="st0" d="M480.514,41.827c0.098,0.713-0.131,1.103-0.142,1.708c-0.452-0.458-1.435-1.049-2.132-0.428
			c0.177,1.245,1.697,1.152,2.132,2.135c0.607,2.944-2.941,3.415-4.695,2.277c-0.019-0.588,0.248-0.89,0.142-1.563
			c0.681,0.335,2.353,1.411,2.704,0c-0.351-0.882-1.438-1.029-1.993-1.71C475.617,41.721,478.681,40.773,480.514,41.827"/>
		<path class="st0" d="M482.935,41.97c0.517,0.098,1.035,0.199,1.708,0.144c0.245,1.985-1.419,4.338-0.144,5.548
			c1.4-0.831,0.97-3.489,1.424-5.264c0.566,0.052,1.364-0.131,1.708,0.142c-0.223,1.718-0.008,5.863-1.994,6.403
			C481.189,50.156,482.203,44.837,482.935,41.97"/>
		<path class="st0" d="M491.186,45.67c0.841,0.128,1.212-0.215,1.283-0.855c-0.169-0.4-0.667-0.471-1.138-0.569
			C491.29,44.728,491.105,45.063,491.186,45.67 M489.767,42.824c3.064-0.73,6.536,2.296,2.988,3.559
			c0.844,0.67,0.888,2.143,0.994,3.554c-0.735-0.019-1.416-0.104-1.993-0.28c-0.152-0.986,0.46-2.734-0.711-2.707
			c-0.327,0.667-0.308,1.686-0.428,2.563c-0.746,0.082-1.076-0.253-1.849-0.144C489.125,47.211,489.362,44.935,489.767,42.824"/>
		<path class="st0" d="M496.453,43.535c1.563,0.052,2.8,0.428,4.267,0.569c0.076,0.55-0.253,0.694-0.141,1.28
			c-0.863-0.038-1.713-0.09-2.416-0.283c-0.221,0.207-0.299,0.556-0.289,0.997c0.43,0.474,1.441,0.365,2.277,0.425
			c-0.025,0.447,0.098,1.046-0.142,1.283c-0.869,0.109-1.332-0.188-2.135-0.144c-0.444,0.033-0.24,0.708-0.28,1.141
			c0.466,0.479,1.661,0.231,2.416,0.425c0.087,0.607-0.101,0.942-0.139,1.424c-1.403-0.261-3.061-0.264-4.415-0.569
			C495.791,47.903,496.015,45.61,496.453,43.535"/>
		<path class="st0" d="M517.799,45.955c-0.359,2.723-0.33,5.836-0.997,8.254c-1.261-0.229-0.547-2.41-0.425-3.701
			c0.133-1.43,0.319-2.971,0.425-4.126c-0.038-0.232,0.133-0.248,0.142-0.428H517.799z"/>
		<path class="st0" d="M519.365,46.522c0.392,1.095-0.131,2.593-0.283,3.987c-0.133,1.198,0.398,3.279-0.997,3.415
			c-0.3-1.797,0.414-4.959,0.566-7.402H519.365z"/>
		<path class="st0" d="M521.641,47.805c-0.025,2.015-0.46,3.619-0.428,5.692h-0.997c0.101-1.991,0.332-3.843,0.572-5.692H521.641z"
			/>
		<path class="st0" d="M433.267,73.703c4.368-2.162,7.87-11.572,3.845-16.081c-2.301-2.576-7.07-2.647-11.528-3.271
			c-4.466-0.626-8.987-1.054-13.091-1.708c-0.787,2.105-1.294,4.496-1.849,6.83c1.002,0.09,2.132,0.049,2.843,0.425
			c-2.239,9.099-4.51,18.165-6.972,27.037c-1.043-0.044-1.896-0.286-2.99-0.281c-0.498,2.388-1.266,4.515-1.702,6.969
			c3.565,0.376,7.206,0.97,10.956,1.424c5.621,0.684,12.732,2.644,16.792-0.425c3.802-2.881,7.391-12.31,3.273-17.078
			c-0.885-1.024-2.421-1.522-2.99-2.846C430.985,74.253,432.164,74.25,433.267,73.703 M434.408,76.407
			c1.487,2.473,3.175,5.199,2.846,9.535c-0.477,6.285-4.57,12.873-11.098,13.377c-4.025,0.308-8.421-0.735-12.669-1.28
			c-4.137-0.531-8.252-1.193-12.094-1.708c-0.714-0.006,0.196-0.757-0.283-0.999c-0.4-0.262-1.332,0.005-1.707-0.283
			c0.942-3.516,1.776-7.141,2.843-10.531c0.999,0.093,1.748,0.438,2.851,0.427c2.127-7.448,3.99-15.172,5.975-22.767
			c-1.22-0.112-0.871-1.784-2.704-1.283c0.771-3.401,1.778-6.571,2.56-9.962c4.553,0.43,9.848,1.114,15.229,1.71
			c4.831,0.537,10.226,1.34,12.522,3.984C443.403,62.074,441.5,73.926,434.408,76.407"/>
		<path class="st0" d="M424.02,68.867c1.947-0.299,3.214-3.282,1.849-5.125c-0.4,0.117-0.37-0.199-0.711-0.142
			C424.935,65.511,424.287,66.998,424.02,68.867 M420.605,71.285c0.694-3.671,1.561-7.165,2.56-10.531
			c3.148,0.144,5.215,1.95,5.267,4.553C428.508,69.384,424.69,71.184,420.605,71.285"/>
		<path class="st0" d="M561.343,79.824c0.005-3.448-2.013-7.053-4.268-8.396c-6.043-3.606-17.732-2.503-25.33-4.27
			c-0.03-0.172-0.158-0.087-0.283,0c-0.109,2.41-0.245,4.788-0.572,6.972c0.94,0.343,2.309,0.253,3.276,0.572
			c-0.833,9.461-1.236,19.352-2.279,28.603c-1.171,0.03-1.961-0.321-3.132-0.289c-0.163,2.448-0.351,4.869-0.567,7.26
			c5.942,1.122,12.8,1.615,19.208,2.563c2.26,0.329,4.469,0.743,6.405,0.425c7.481-1.231,9.325-13.938,4.27-19.355
			c-1.215-1.299-3.214-2.192-4.126-3.557C559.406,89.743,561.332,85.469,561.343,79.824 M559.352,92.346
			c6.231,7.021,6.198,24.605-6.119,24.619c-3.938,0.003-8.451-0.896-12.808-1.566c-4.371-0.675-8.807-1.127-12.666-1.708
			c-0.365-0.411,0.065-0.885,0-1.424c-0.487-0.177-1.277-0.046-1.705-0.286c0.174-3.807,0.637-7.331,0.852-11.098
			c1.204-0.065,2.032,0.248,3.129,0.283c0.795-7.742,1.367-15.708,1.852-23.764c-0.294-0.324-1.228-0.006-1.566-0.283
			c-0.03-0.46,0.253-0.602,0.144-1.138c-0.349-0.272-1.136-0.098-1.569-0.286c0.275-3.518,0.498-7.094,0.858-10.528
			c4.167,0.678,10.12,1.029,15.51,1.849c6.027,0.918,11.621,1.253,14.799,4.554c2.032,2.105,3.973,6.721,3.843,11.1
			C563.777,86.932,562.514,90.785,559.352,92.346"/>
		<path class="st0" d="M546.404,84.375c2.574-0.014,3.603-5.272,0.281-5.264C546.568,80.843,546.508,82.635,546.404,84.375
			 M543.556,86.655c0.226-3.663,0.409-7.372,0.714-10.959C552.279,75.306,553.531,87.559,543.556,86.655"/>
		<path class="st0" d="M420.322,85.943c2.102-0.664,3.837-3.271,2.56-5.978c-0.398-0.169-0.82-0.319-1.28-0.425
			C421.273,81.68,420.243,83.873,420.322,85.943 M416.477,88.644c0.98-4.047,1.895-8.159,2.99-12.094
			c0.12-0.027,0.136,0.054,0.142,0.142c3.429,0.104,5.556,1.874,5.692,4.695C425.546,86.348,420.872,88.154,416.477,88.644"/>
		<path class="st0" d="M545.689,102.593c2.062-0.733,3.747-2.985,2.563-5.695c-0.681-0.411-1.367-0.814-2.277-0.994
			C545.869,98.029,545.461,100.605,545.689,102.593 M542.702,105.153c0.207-4.3,0.509-8.502,0.711-12.808
			c5.384-0.654,10.177,6.928,5.406,10.817C547.307,104.396,545.431,104.717,542.702,105.153"/>
		<path class="st0" d="M471.979,151.687c0.055-0.482-0.087-1.871-0.714-2.135C470.813,150.287,470.878,151.704,471.979,151.687
			 M474.539,144.857c-0.24,0.234-0.114,0.833-0.142,1.28c-0.316,0.297-0.689-0.15-1.28,0c-0.498,1.19,0.403,2.138,0.425,3.274
			c0.493-0.03,0.259-0.787,0.425-1.138c0.722-0.101,0.994,0.242,1.71,0.142c-0.036,1.484-0.646,2.386-1.28,3.273
			c0.035,0.866,0.384,1.419,0.569,2.132c-0.831-0.163-2.045,0.055-2.277-0.708c-4.112,1.882-4.967-4.567-1.707-5.267
			C470.094,145.342,472.523,143.58,474.539,144.857"/>
		<path class="st0" d="M445.224,151.971c-0.166,0.735-0.463,1.343-0.714,1.993c-0.18-0.496-2.206-2.258-2.418-0.572
			c-0.109,0.88,1.441,1.362,1.708,2.563c0.732,3.26-3.826,5.289-5.833,2.279c0.109-0.795,0.498-1.305,0.711-1.996
			c0.447,0.999,2.731,2.533,2.99,0.569c0.123-0.964-1.514-1.626-1.708-2.843C439.486,151.001,443.113,149.596,445.224,151.971"/>
		<path class="st0" d="M452.481,153.821c-0.03,0.73-0.376,1.141-0.428,1.849c-0.689,0.027-1.157-0.169-1.563-0.428
			c-1.149,1.936-1.52,4.651-2.421,6.833c-0.754-0.052-1.277-0.335-1.988-0.427c0.572-2.456,1.476-4.592,2.132-6.972
			c-0.406-0.308-1.193-0.234-1.569-0.572c0.204-0.556,0.368-1.149,0.572-1.708C449.096,152.748,450.561,153.51,452.481,153.821"/>
		<path class="st0" d="M459.17,155.67c-0.071,0.689-0.262,1.258-0.428,1.852c-0.94-0.245-1.944-0.43-2.846-0.714
			c-0.226,0.395-0.248,0.989-0.43,1.427c0.727,0.417,1.648,0.629,2.565,0.852c-0.09,0.621-0.237,1.187-0.428,1.705
			c-0.896-0.144-1.68-0.409-2.56-0.567c-0.381,0.379-0.452,1.068-0.572,1.708c0.801,0.433,1.863,0.602,2.846,0.852
			c-0.177,0.629-0.37,1.242-0.569,1.852c-1.631-0.362-3.058-0.926-4.837-1.141c0.648-3.146,1.577-6.013,2.418-8.963
			C456.106,154.752,457.367,155.479,459.17,155.67"/>
		<path class="st0" d="M462.159,162.359h0.569c0.354-0.501,0.422-2.04,0.142-2.704C462.791,160.646,461.86,161.461,462.159,162.359
			 M464.719,156.951c0.114,2.832,0.193,6.664,0.427,9.251c-0.675,0.43-1.435-0.272-2.277-0.144c-0.147-0.283,0.093-1.166,0-1.849
			c-0.297-0.321-1.059-0.174-1.424-0.425c-0.482,0.365-0.586,1.122-0.855,1.705c-0.695-0.155-1.392-0.308-2.132-0.425
			c1.296-2.922,2.811-5.635,4.126-8.538C463.358,156.605,464.068,156.749,464.719,156.951"/>
		<path class="st0" d="M469.414,165.348c2.176-0.038,2.443-3.235,1.852-5.123c-0.313-0.163-0.586-0.368-1.141-0.286
			C469.909,161.762,469.613,163.505,469.414,165.348 M466.995,166.77c0.368-3.05,1.008-5.825,1.283-8.962
			c1.653,0.15,3.663,0.12,4.556,0.994c2.233,2.192,0.768,7.127-1.855,8.396C469.449,167.255,468.123,167.113,466.995,166.77"/>
		<path class="st0" d="M481.226,159.372c-0.15,0.61-0.054,1.46-0.283,1.991c-0.847-0.153-1.778-0.215-2.563-0.428
			c-0.447,0.264-0.417,1.005-0.425,1.71c0.61,0.381,1.713,0.278,2.557,0.425c-0.054,0.607,0.142,1.465-0.139,1.852
			c-1,0.098-1.563-0.245-2.563-0.142c-0.259,1.065-0.335,2.318-0.425,3.554c-0.708-0.104-1.539-0.076-2.135-0.28
			c0.313-3.061,0.512-6.223,0.997-9.112C478.037,158.956,479.469,159.323,481.226,159.372"/>
		<path class="st0" d="M484.355,165.346h0.858c-0.025-1.019-0.082-2.004-0.428-2.702
			C484.741,163.644,484.303,164.246,484.355,165.346 M486.065,159.655c0.754,3.042,1.375,6.217,1.993,9.393
			c-0.989,0.016-1.784-0.008-2.279-0.142c-0.188-0.428-0.144-1.089-0.142-1.708c-0.428-0.191-1.089-0.147-1.708-0.144
			c-0.242,0.468-0.379,1.048-0.427,1.708h-2.277c0.937-3.094,1.822-6.242,2.846-9.249
			C484.883,159.415,485.256,159.753,486.065,159.655"/>
		<path class="st0" d="M502.146,159.514c-0.008,0.722,0.242,1.179,0.142,1.991h-1.708c-0.117,2.162,0.471,4.839,0.425,7.402
			c-0.844-0.09-1.266,0.248-2.135,0.139c-0.117-2.533-0.327-4.978-0.566-7.397c-0.651-0.101-1.441,0.158-1.708,0
			c0.112-0.73-0.201-1.035-0.142-1.71C498.205,159.465,500.444,159.721,502.146,159.514"/>
		<path class="st0" d="M494.46,160.226v2.132c-0.547-0.482-2.255-1.315-2.56,0c0.809,1.566,3.156,1.449,3.273,3.698
			c0.128,2.536-3.001,4.314-5.406,2.563v-2.274c0.825,0.825,3.039,1.724,3.129,0c0.065-1.323-2.753-1.642-3.129-3.132
			C489.084,160.528,491.853,158.706,494.46,160.226"/>
	</g>
</g>
</svg>
